# xmcd
#
# Track frame offsets: 
#        151
#        10419
#        22421
#        38440
#        52572
#        59670
#        76021
#        84769
#        100256
#        115436
#        130347
#
# Disc length: 1888 seconds
#
# Revision: 0
# Processed by: cddbd v1.5.2PL0 Copyright (c) Steve Scherf et al.
# Submitted via: ExactAudioCopy v0.95b3
#
DISCID=80075e0b
DTITLE=Willie Nelson - Live At Builly Bob's Texas
DYEAR=2007
DGENRE=Country
TTITLE0=Whiskey River
TTITLE1=Stay All Night (Stay A Little Longer)
TTITLE2=Good Hearted Woman
TTITLE3=Funny How Time Slips Away
TTITLE4=Crazy
TTITLE5=Night Life
TTITLE6=Down Yonder
TTITLE7=Workin' Man Blues
TTITLE8=Help Me Make It Through The Night
TTITLE9=Me and Bobby McGee
TTITLE10=Me and Paul
EXTD=
EXTT0=
EXTT1=
EXTT2=
EXTT3=
EXTT4=
EXTT5=
EXTT6=
EXTT7=
EXTT8=
EXTT9=
EXTT10=
PLAYORDER=
